<svg width="16" height="16" viewBox="0 0 16 16" fill="none" xmlns="http://www.w3.org/2000/svg">
<path d="M8.00001 5.84327C7.57351 5.84214 7.15627 5.96756 6.80108 6.20366C6.4459 6.43977 6.16874 6.77594 6.00469 7.16962C5.84065 7.56331 5.79708 7.99681 5.87951 8.41527C5.96194 8.83372 6.16665 9.21832 6.46775 9.52038C6.76885 9.82244 7.15279 10.0284 7.57099 10.1121C7.98918 10.1959 8.42282 10.1537 8.81703 9.99092C9.21123 9.82813 9.54828 9.55204 9.78551 9.19761C10.0227 8.84318 10.1495 8.42634 10.1497 7.99984C10.1494 7.42916 9.92306 6.88184 9.52017 6.47767C9.11728 6.07349 8.57069 5.84539 8.00001 5.84327Z" fill="#444A58"/>
<path d="M15.9429 4.71065C15.932 4.24529 15.8691 3.7826 15.7554 3.33122C15.5562 2.49009 15.101 1.73145 14.4526 1.15979C13.7729 0.571256 12.9286 0.206158 12.0343 0.114074C11.5791 0.0595425 11.1213 0.0282638 10.6629 0.0203599C9.75773 -0.000211509 8.85716 -0.000211509 7.95659 -0.000211509C6.89259 -0.000211509 5.82859 -0.0104972 4.76231 0.0443599C4.35895 0.0585309 3.95733 0.104386 3.56116 0.181503C2.69132 0.343472 1.8929 0.770626 1.27545 1.40436C0.645139 2.08397 0.243833 2.94414 0.128021 3.86379C0.0566476 4.37842 0.0211335 4.89738 0.021735 5.41693C0.00725881 6.26493 2.07138e-05 7.11369 2.07138e-05 7.96322C2.07138e-05 9.14265 -0.0136936 10.3255 0.0605921 11.5049C0.0879225 12.0095 0.178537 12.5087 0.330306 12.9906C0.631023 13.9584 1.28343 14.7784 2.15888 15.2889C2.81599 15.6639 3.55188 15.8796 4.30745 15.9186C4.82631 15.9575 5.34859 15.9826 5.86973 15.9849C7.56573 15.9952 9.26288 16.0181 10.96 15.9632C11.4948 15.9573 12.0277 15.8983 12.5509 15.7872C13.4183 15.6048 14.2059 15.1529 14.8011 14.4961C15.3963 13.8393 15.7687 13.0112 15.8652 12.1301C15.9354 11.6153 15.9709 11.0964 15.9714 10.5769C15.9874 9.71979 15.9897 8.86265 16.0023 7.63065C15.9863 6.90379 15.9692 5.80665 15.9429 4.71065ZM7.99088 12.1038C7.17905 12.1031 6.38566 11.8617 5.711 11.4102C5.03634 10.9587 4.51071 10.3172 4.20056 9.56698C3.89041 8.81674 3.80967 7.99138 3.96855 7.19525C4.12742 6.39913 4.51878 5.66798 5.09315 5.09426C5.66751 4.52053 6.39909 4.12999 7.19539 3.97199C7.99169 3.814 8.81696 3.89566 9.56686 4.20665C10.3168 4.51763 10.9576 5.04398 11.4084 5.71914C11.8592 6.3943 12.0997 7.18797 12.0994 7.99979C12.0997 8.5392 11.9937 9.07338 11.7872 9.57173C11.5808 10.0701 11.2781 10.5228 10.8965 10.904C10.5148 11.2853 10.0618 11.5874 9.56317 11.7933C9.06459 11.9992 8.53029 12.1047 7.99088 12.1038ZM12.664 4.7895C12.3898 4.79041 12.1215 4.70991 11.8931 4.55821C11.6647 4.40651 11.4865 4.19043 11.3809 3.93734C11.2754 3.68426 11.2474 3.40555 11.3004 3.13652C11.3535 2.8675 11.4851 2.62027 11.6788 2.42614C11.8724 2.23201 12.1193 2.09972 12.3882 2.04604C12.6571 1.99235 12.9359 2.01967 13.1893 2.12455C13.4426 2.22943 13.6591 2.40714 13.8114 2.63517C13.9637 2.86321 14.0448 3.1313 14.0446 3.4055C14.0419 3.77071 13.8955 4.12019 13.6372 4.37833C13.3788 4.63647 13.0292 4.78254 12.664 4.78493V4.7895Z" fill="#444A58"/>
</svg>
