<svg width="21" height="16" viewBox="0 0 21 16" fill="none" xmlns="http://www.w3.org/2000/svg">
<path fill-rule="evenodd" clip-rule="evenodd" d="M19.6825 0.293846C18.8647 0.766398 17.9731 1.0978 17.0452 1.27414C16.6513 0.867916 16.1792 0.545641 15.6573 0.326725C15.1355 0.10781 14.5748 -0.00321595 14.0089 0.000336439C12.9239 -0.0135642 11.8778 0.403778 11.1002 1.16069C10.3227 1.9176 9.87744 2.95218 9.8622 4.03718C9.86357 4.34906 9.90192 4.65967 9.97643 4.96252C8.33428 4.88822 6.72531 4.4746 5.25091 3.74773C3.77652 3.02085 2.46865 1.99649 1.40971 0.73917C1.04241 1.35053 0.848017 2.05016 0.847273 2.76337C0.848558 3.43432 1.01844 4.09418 1.34132 4.68233C1.6642 5.27048 2.12971 5.76806 2.69508 6.12933C2.03775 6.11012 1.39404 5.93731 0.815465 5.62473C0.815465 5.64063 0.815465 5.65798 0.815465 5.67533C0.82502 6.61852 1.16187 7.52911 1.76843 8.25145C2.375 8.97379 3.21362 9.46303 4.14094 9.63554C3.78393 9.73108 3.416 9.77969 3.04643 9.78013C2.78441 9.78065 2.52295 9.75595 2.26566 9.70639C2.54282 10.5177 3.06471 11.2231 3.75946 11.7254C4.4542 12.2278 5.28761 12.5024 6.1449 12.5114C4.66325 13.6409 2.85064 14.2507 0.987522 14.2464C0.657372 14.2437 0.327651 14.222 0 14.1813C1.90836 15.3712 4.11286 16.0005 6.36178 15.9973C7.89525 16.0303 9.41998 15.758 10.8472 15.1962C12.2745 14.6344 13.5757 13.7944 14.6753 12.725C15.7748 11.6556 16.6507 10.3782 17.2519 8.96709C17.8532 7.556 18.1677 6.03943 18.1773 4.50563C18.1773 4.33068 18.1773 4.15718 18.1658 3.98368C18.977 3.41564 19.6802 2.7071 20.242 1.89152C19.4825 2.22026 18.6786 2.43512 17.8564 2.52914C18.7181 2.03257 19.3678 1.23728 19.6825 0.293846Z" fill="#444A58"/>
</svg>
